<?xml version="1.0" encoding="iso-8859-1"?>
<!-- Uploaded to: SVG Repo, www.svgrepo.com, Generator: SVG Repo Mixer Tools -->
<svg height="800px" width="800px" version="1.1" id="Layer_1" xmlns="http://www.w3.org/2000/svg" xmlns:xlink="http://www.w3.org/1999/xlink" 
	 viewBox="0 0 512 512" xml:space="preserve">
<g transform="translate(1 1)">
	<polygon style="fill:#FFFFFF;" points="58.733,127 451.267,127 451.267,502.467 58.733,502.467 	"/>
	<g>
		<path style="fill:#0096E6;" d="M459.8,511H50.2V118.467h409.6V511z M67.267,493.933h375.467v-358.4H67.267V493.933z"/>
		<path style="fill:#0096E6;" d="M348.867,195.267c-5.12,0-8.533-3.413-8.533-8.533c0-9.387-7.68-17.067-17.067-17.067
			s-17.067,7.68-17.067,17.067c0,5.12-3.413,8.533-8.533,8.533s-8.533-3.413-8.533-8.533c0-18.773,15.36-34.133,34.133-34.133
			s34.133,15.36,34.133,34.133C357.4,191.853,353.987,195.267,348.867,195.267z M212.333,195.267c-5.12,0-8.533-3.413-8.533-8.533
			c0-9.387-7.68-17.067-17.067-17.067c-9.387,0-17.067,7.68-17.067,17.067c0,5.12-3.413,8.533-8.533,8.533
			c-5.12,0-8.533-3.413-8.533-8.533c0-18.773,15.36-34.133,34.133-34.133s34.133,15.36,34.133,34.133
			C220.867,191.853,217.453,195.267,212.333,195.267z"/>
	</g>
	<polygon style="fill:#D0E8F9;" points="67.267,7.533 442.733,7.533 442.733,127 67.267,127 	"/>
	<g>
		<path style="fill:#0096E6;" d="M451.267,135.533H58.733V-1h392.533V135.533z M75.8,118.467h358.4v-102.4H75.8V118.467z"/>
		<path style="fill:#0096E6;" d="M255,314.733c-42.667,0-76.8-34.133-76.8-76.8v-51.2c0-5.12,3.413-8.533,8.533-8.533
			c5.12,0,8.533,3.413,8.533,8.533v51.2c0,33.28,26.453,59.733,59.733,59.733s59.733-26.453,59.733-59.733v-51.2
			c0-5.12,3.413-8.533,8.533-8.533c5.12,0,8.533,3.413,8.533,8.533v51.2C331.8,280.6,297.667,314.733,255,314.733z M425.667,135.533
			c-2.56,0-5.12-0.853-6.827-3.413L383,84.333V127c0,5.12-3.413,8.533-8.533,8.533c-5.12,0-8.533-3.413-8.533-8.533V58.733
			c0,0,0,0,0-0.853s0-1.707,0.853-2.56c0,0,0-0.853,0.853-0.853c0-0.853,0.853-1.707,1.707-1.707l51.2-51.2
			c3.413-3.413,8.533-3.413,11.947,0c3.413,3.413,3.413,8.533,0,11.947l-46.08,46.08l46.933,62.293
			c2.56,3.413,1.707,9.387-1.707,11.947C429.08,134.68,427.373,135.533,425.667,135.533z M84.333,135.533
			c-1.707,0-3.413-0.853-5.12-1.707c-3.413-2.56-4.267-8.533-1.707-11.947l46.933-62.293l-46.08-46.08
			c-3.413-3.413-3.413-8.533,0-11.947c3.413-3.413,8.533-3.413,11.947,0l51.2,51.2c0.853,0.853,0.853,0.853,1.707,1.707
			c0,0,0,0.853,0.853,0.853c0,0.853,0,1.707,0,2.56c0,0,0,0,0,0.853V127c0,5.12-3.413,8.533-8.533,8.533S127,132.12,127,127V84.333
			L91.16,132.12C89.453,134.68,86.893,135.533,84.333,135.533z"/>
	</g>
</g>
</svg>